<svg xmlns="http://www.w3.org/2000/svg" viewBox="0 0 1920 396">
  <title>Poolbau Koch Logo (hell)</title>
  <g id="waves" fill="none" stroke-linecap="round" stroke-width="34.40">
    <path d="M85.18 104.11C146.74 65.43 187.68 97.13 197.08 104.11C206.49 111.09 247.43 142.79 308.99 104.11" stroke="#BAB9B4"/>
    <path d="M85.18 196.25C146.74 157.57 187.68 189.27 197.08 196.25C206.49 203.23 247.43 234.93 308.99 196.25" stroke="#20AFAD"/>
    <path d="M85.18 289.06C146.74 250.38 187.68 282.08 197.08 289.06C206.49 296.05 247.43 327.74 308.99 289.06" stroke="#004A80"/>
  </g>
  <g id="wordmark" fill="#FFFFFF">
    <g id="line1-poolbau-koch">
      <path d="M422.1 215.17Q419.24 215.17 417.39 213.32Q415.54 211.47 415.54 208.61V90.29Q415.54 87.43 417.39 85.58Q419.24 83.73 422.1 83.73H455.76Q468.22 83.73 477.81 89.2Q487.4 94.67 492.79 104.26Q498.18 113.85 498.18 126.47Q498.18 138.76 492.79 148.27Q487.4 157.78 477.81 163.25Q468.22 168.72 455.76 168.72H428.67V208.61Q428.67 211.47 426.82 213.32Q424.96 215.17 422.1 215.17ZM428.67 156.1H455.76Q464.35 156.1 471.08 152.31Q477.81 148.52 481.6 141.79Q485.38 135.06 485.38 126.47Q485.38 117.55 481.6 110.82Q477.81 104.09 471.08 100.22Q464.35 96.35 455.76 96.35H428.67Z"/>
      <path d="M579.2 216.85Q564.55 216.85 552.27 211.8Q539.98 206.75 530.98 197.67Q521.97 188.58 517.01 176.29Q512.04 164.01 512.04 149.36Q512.04 134.89 517.01 122.6Q521.97 110.32 530.98 101.23Q539.98 92.14 552.27 87.09Q564.55 82.04 579.2 82.04Q593.67 82.04 605.96 87.09Q618.24 92.14 627.33 101.23Q636.42 110.32 641.38 122.6Q646.35 134.89 646.35 149.36Q646.35 164.01 641.38 176.29Q636.42 188.58 627.33 197.67Q618.24 206.75 605.96 211.8Q593.67 216.85 579.2 216.85ZM579.2 204.4Q590.81 204.4 600.74 200.28Q610.67 196.15 617.99 188.66Q625.31 181.17 629.35 171.16Q633.39 161.15 633.39 149.36Q633.39 137.75 629.35 127.74Q625.31 117.72 617.99 110.23Q610.67 102.74 600.74 98.62Q590.81 94.5 579.2 94.5Q567.41 94.5 557.48 98.62Q547.55 102.74 540.23 110.23Q532.91 117.72 528.87 127.74Q524.83 137.75 524.83 149.36Q524.83 161.15 528.87 171.16Q532.91 181.17 540.23 188.66Q547.55 196.15 557.48 200.28Q567.41 204.4 579.2 204.4Z"/>
      <path d="M730.67 216.86Q716.02 216.86 703.74 211.81Q691.45 206.76 682.45 197.67Q673.44 188.58 668.48 176.29Q663.51 164.01 663.51 149.37Q663.51 134.89 668.48 122.61Q673.44 110.32 682.45 101.23Q691.45 92.14 703.74 87.1Q716.02 82.05 730.67 82.05Q745.14 82.05 757.43 87.1Q769.71 92.14 778.8 101.23Q787.89 110.32 792.85 122.61Q797.82 134.89 797.82 149.37Q797.82 164.01 792.85 176.29Q787.89 188.58 778.8 197.67Q769.71 206.76 757.43 211.81Q745.14 216.86 730.67 216.86ZM730.67 204.4Q742.28 204.4 752.21 200.28Q762.14 196.15 769.46 188.67Q776.78 181.18 780.82 171.16Q784.86 161.15 784.86 149.37Q784.86 137.75 780.82 127.74Q776.78 117.73 769.46 110.24Q762.14 102.75 752.21 98.62Q742.28 94.5 730.67 94.5Q718.88 94.5 708.95 98.62Q699.03 102.75 691.7 110.24Q684.38 117.73 680.34 127.74Q676.3 137.75 676.3 149.37Q676.3 161.15 680.34 171.16Q684.38 181.18 691.7 188.67Q699.03 196.15 708.95 200.28Q718.88 204.4 730.67 204.4Z"/>
      <path d="M831.3 215.26Q828.6 215.26 826.67 213.41Q824.73 211.55 824.73 208.69V90.38Q824.73 87.69 826.67 85.75Q828.6 83.81 831.3 83.81Q833.99 83.81 835.93 85.75Q837.86 87.69 837.86 90.38V202.8H903.67Q906.36 202.8 908.3 204.57Q910.23 206.34 910.23 209.03Q910.23 211.72 908.3 213.49Q906.36 215.26 903.67 215.26Z"/>
      <path d="M938.47 215.2Q935.27 215.2 933.17 213.43Q931.06 211.67 931.06 208.64V90.32Q931.06 87.46 932.92 85.61Q934.77 83.76 937.63 83.76H978.53Q988.62 83.76 996.79 88.05Q1004.95 92.34 1009.75 99.75Q1014.54 107.15 1014.54 116.91Q1014.54 126 1009.66 133.07Q1004.78 140.14 996.87 143.84Q1008.15 146.87 1015.05 155.2Q1021.95 163.53 1021.95 176.32Q1021.95 187.77 1016.73 196.52Q1011.51 205.27 1002.34 210.24Q993.17 215.2 981.39 215.2ZM944.19 202.58H981.39Q989.46 202.58 995.69 199.38Q1001.92 196.18 1005.45 190.29Q1008.99 184.4 1008.99 176.32Q1008.99 168.75 1005.45 163.11Q1001.92 157.47 995.69 154.36Q989.46 151.25 981.39 151.25H944.19ZM944.19 138.62H978.53Q988.62 138.62 995.19 132.9Q1001.75 127.18 1001.75 116.91Q1001.75 106.81 995.19 101.6Q988.62 96.38 978.53 96.38H944.19Z"/>
      <path d="M1035.62 215.23Q1031.75 215.23 1030.07 212.03Q1028.39 208.83 1029.73 205.8L1079.21 88.33Q1081.06 83.78 1085.61 83.78Q1089.98 83.78 1091.83 88.33L1141.48 205.97Q1143 209.17 1141.06 212.2Q1139.13 215.23 1135.59 215.23Q1133.57 215.23 1131.97 214.22Q1130.38 213.21 1129.37 211.19L1083.08 98.93H1088.3L1041.68 211.19Q1040.84 213.21 1039.24 214.22Q1037.64 215.23 1035.62 215.23ZM1046.73 183.92 1051.78 172.65H1120.11L1125.16 183.92Z"/>
      <path d="M1208.26 217.83Q1192.95 217.83 1181.08 211.94Q1169.22 206.05 1162.57 195.62Q1155.92 185.18 1155.92 171.72V90.26Q1155.92 87.4 1157.77 85.55Q1159.62 83.7 1162.48 83.7Q1165.35 83.7 1167.2 85.55Q1169.05 87.4 1169.05 90.26V171.72Q1169.05 181.65 1174.01 189.22Q1178.98 196.8 1187.9 201.09Q1196.82 205.38 1208.26 205.38Q1219.54 205.38 1228.29 201.09Q1237.04 196.8 1242.01 189.22Q1246.97 181.65 1246.97 171.72V90.26Q1246.97 87.4 1248.82 85.55Q1250.67 83.7 1253.54 83.7Q1256.56 83.7 1258.33 85.55Q1260.1 87.4 1260.1 90.26V171.72Q1260.1 185.18 1253.45 195.62Q1246.8 206.05 1235.11 211.94Q1223.41 217.83 1208.26 217.83Z"/>
      <path d="M1349.33 215.19Q1346.64 215.19 1344.7 213.26Q1342.77 211.32 1342.77 208.63V90.32Q1342.77 87.62 1344.7 85.69Q1346.64 83.75 1349.33 83.75Q1352.03 83.75 1353.96 85.69Q1355.9 87.62 1355.9 90.32V147.54L1417.33 86.11Q1418.67 84.76 1419.85 84.26Q1421.03 83.75 1422.54 83.75Q1425.57 83.75 1427.09 85.6Q1428.6 87.45 1428.52 90.06Q1428.43 92.67 1426.41 95.03L1380.3 141.14L1426.92 204.76Q1428.43 206.95 1428.18 209.39Q1427.93 211.83 1426.25 213.51Q1424.56 215.19 1422.21 215.19Q1418.5 215.19 1416.65 212.33L1370.88 150.4L1355.9 165.55V208.63Q1355.9 211.32 1353.96 213.26Q1352.03 215.19 1349.33 215.19Z"/>
      <path d="M1506.83 216.88Q1492.19 216.88 1479.91 211.83Q1467.62 206.78 1458.62 197.69Q1449.61 188.6 1444.65 176.32Q1439.68 164.03 1439.68 149.39Q1439.68 134.91 1444.65 122.63Q1449.61 110.34 1458.62 101.25Q1467.62 92.17 1479.91 87.12Q1492.19 82.07 1506.83 82.07Q1521.31 82.07 1533.59 87.12Q1545.88 92.17 1554.97 101.25Q1564.06 110.34 1569.02 122.63Q1573.99 134.91 1573.99 149.39Q1573.99 164.03 1569.02 176.32Q1564.06 188.6 1554.97 197.69Q1545.88 206.78 1533.59 211.83Q1521.31 216.88 1506.83 216.88ZM1506.83 204.42Q1518.45 204.42 1528.38 200.3Q1538.31 196.18 1545.63 188.69Q1552.95 181.2 1556.99 171.18Q1561.03 161.17 1561.03 149.39Q1561.03 137.78 1556.99 127.76Q1552.95 117.75 1545.63 110.26Q1538.31 102.77 1528.38 98.65Q1518.45 94.52 1506.83 94.52Q1495.05 94.52 1485.12 98.65Q1475.19 102.77 1467.87 110.26Q1460.55 117.75 1456.51 127.76Q1452.47 137.78 1452.47 149.39Q1452.47 161.17 1456.51 171.18Q1460.55 181.2 1467.87 188.69Q1475.19 196.18 1485.12 200.3Q1495.05 204.42 1506.83 204.42Z"/>
      <path d="M1656.63 216.9Q1643 216.9 1631.13 211.68Q1619.27 206.47 1610.26 197.13Q1601.26 187.79 1596.21 175.58Q1591.16 163.38 1591.16 149.41Q1591.16 135.61 1596.13 123.41Q1601.09 111.21 1610.1 101.95Q1619.1 92.7 1630.97 87.39Q1642.83 82.09 1656.63 82.09Q1668.75 82.09 1678.68 85.63Q1688.61 89.16 1697.86 96.9Q1699.38 98.08 1699.63 99.68Q1699.88 101.28 1699.21 102.71Q1698.54 104.14 1697.19 104.81Q1696.86 106.16 1695.51 106.83Q1694.16 107.51 1692.4 107.34Q1690.63 107.17 1688.94 105.82Q1682.38 100.1 1674.64 97.32Q1666.9 94.55 1656.63 94.55Q1645.69 94.55 1636.18 98.92Q1626.67 103.3 1619.44 110.87Q1612.2 118.45 1608.08 128.38Q1603.95 138.31 1603.95 149.41Q1603.95 160.86 1608.08 170.79Q1612.2 180.72 1619.44 188.29Q1626.67 195.86 1636.18 200.16Q1645.69 204.45 1656.63 204.45Q1665.89 204.45 1674.13 201.42Q1682.38 198.39 1689.79 192.67Q1691.81 190.98 1694.08 191.32Q1696.35 191.66 1698.03 193.34Q1699.72 195.02 1699.72 197.72Q1699.72 199.06 1699.3 200.16Q1698.87 201.25 1697.86 202.43Q1689.28 210.34 1678.68 213.62Q1668.08 216.9 1656.63 216.9Z"/>
      <path d="M1733.19 215.15Q1730.33 215.15 1728.48 213.3Q1726.63 211.45 1726.63 208.59V90.27Q1726.63 87.41 1728.48 85.56Q1730.33 83.71 1733.19 83.71Q1736.05 83.71 1737.91 85.56Q1739.76 87.41 1739.76 90.27V142.78H1821.89V90.27Q1821.89 87.41 1823.74 85.56Q1825.59 83.71 1828.45 83.71Q1831.31 83.71 1833.16 85.56Q1835.02 87.41 1835.02 90.27V208.59Q1835.02 211.45 1833.16 213.3Q1831.31 215.15 1828.45 215.15Q1825.59 215.15 1823.74 213.3Q1821.89 211.45 1821.89 208.59V154.57H1739.76V208.59Q1739.76 211.45 1737.91 213.3Q1736.05 215.15 1733.19 215.15Z"/>
    </g>
    <g id="line2-tagline">
      <path d="M408.91 311.34Q407.68 311.34 406.88 310.54Q406.09 309.74 406.09 308.51V257.66Q406.09 256.43 406.88 255.63Q407.68 254.84 408.91 254.84Q410.14 254.84 410.93 255.63Q411.73 256.43 411.73 257.66V308.51Q411.73 309.74 410.93 310.54Q410.14 311.34 408.91 311.34Z"/>
      <path d="M428.47 295.23Q427.17 295.23 426.41 294.44Q425.65 293.64 425.65 292.41V257.69Q425.65 256.38 426.41 255.62Q427.17 254.86 428.47 254.86Q429.7 254.86 430.46 255.62Q431.22 256.38 431.22 257.69V292.41Q431.22 293.64 430.46 294.44Q429.7 295.23 428.47 295.23ZM459.58 311.36Q458.35 311.36 457.55 310.57Q456.76 309.77 456.76 308.62V289.81Q456.76 285.32 455.06 282.43Q453.36 279.53 450.43 278.09Q447.5 276.64 443.81 276.64Q440.26 276.64 437.41 278.01Q434.55 279.39 432.88 281.78Q431.22 284.16 431.22 287.2H427.24Q427.39 282.64 429.7 279.06Q432.02 275.48 435.85 273.42Q439.68 271.36 444.39 271.36Q449.52 271.36 453.57 273.49Q457.63 275.63 459.98 279.75Q462.33 283.87 462.33 289.81V308.62Q462.33 309.77 461.53 310.57Q460.74 311.36 459.58 311.36ZM428.47 311.36Q427.17 311.36 426.41 310.6Q425.65 309.85 425.65 308.62V274.61Q425.65 273.31 426.41 272.55Q427.17 271.79 428.47 271.79Q429.7 271.79 430.46 272.55Q431.22 273.31 431.22 274.61V308.62Q431.22 309.85 430.46 310.6Q429.7 311.36 428.47 311.36Z"/>
      <path d="M477.1 286.98Q477.32 282.49 479.45 278.95Q481.59 275.4 485.02 273.38Q488.46 271.35 492.65 271.35Q495.98 271.35 497.79 272.29Q499.6 273.23 499.17 275.04Q498.88 276.13 498.19 276.49Q497.5 276.85 496.53 276.78Q495.55 276.7 494.32 276.63Q490.27 276.27 487.12 277.46Q483.97 278.66 482.13 281.12Q480.28 283.58 480.28 286.98ZM477.53 311.36Q476.23 311.36 475.51 310.63Q474.79 309.91 474.79 308.61V274.53Q474.79 273.23 475.51 272.51Q476.23 271.78 477.53 271.78Q478.84 271.78 479.56 272.51Q480.28 273.23 480.28 274.53V308.61Q480.28 309.91 479.56 310.63Q478.84 311.36 477.53 311.36Z"/>
      <path d="M614.83 311.77Q609.26 311.77 604.84 309.13Q600.43 306.49 597.86 301.93Q595.29 297.37 595.29 291.66Q595.29 285.87 597.93 281.31Q600.57 276.75 605.13 274.11Q609.69 271.47 615.41 271.47Q621.12 271.47 625.64 274.11Q630.16 276.75 632.8 281.31Q635.44 285.87 635.52 291.66L633.27 293.39Q633.27 298.6 630.85 302.76Q628.43 306.92 624.27 309.34Q620.11 311.77 614.83 311.77ZM615.41 306.7Q619.6 306.7 622.89 304.75Q626.18 302.8 628.1 299.36Q630.02 295.93 630.02 291.66Q630.02 287.32 628.1 283.92Q626.18 280.52 622.89 278.53Q619.6 276.54 615.41 276.54Q611.28 276.54 607.95 278.53Q604.63 280.52 602.67 283.92Q600.72 287.32 600.72 291.66Q600.72 295.93 602.67 299.36Q604.63 302.8 607.95 304.75Q611.28 306.7 615.41 306.7ZM632.7 311.41Q631.47 311.41 630.67 310.65Q629.87 309.89 629.87 308.66V296.29L631.25 290.57L635.52 291.66V308.66Q635.52 309.89 634.72 310.65Q633.93 311.41 632.7 311.41Z"/>
      <path d="M663.84 311.87Q658.7 311.87 654.65 309.74Q650.6 307.6 648.25 303.48Q645.89 299.36 645.89 293.42V274.61Q645.89 273.46 646.69 272.66Q647.49 271.86 648.64 271.86Q649.87 271.86 650.67 272.66Q651.46 273.46 651.46 274.61V293.42Q651.46 297.91 653.16 300.8Q654.86 303.7 657.79 305.14Q660.72 306.59 664.41 306.59Q667.96 306.59 670.82 305.22Q673.67 303.84 675.34 301.45Q677 299.07 677 296.03H680.98Q680.76 300.59 678.48 304.17Q676.21 307.75 672.37 309.81Q668.54 311.87 663.84 311.87ZM679.75 311.44Q678.52 311.44 677.76 310.68Q677 309.92 677 308.62V274.61Q677 273.38 677.76 272.62Q678.52 271.86 679.75 271.86Q680.98 271.86 681.78 272.62Q682.57 273.38 682.57 274.61V308.62Q682.57 309.92 681.78 310.68Q680.98 311.44 679.75 311.44Z"/>
      <path d="M749.34 311.34Q748.11 311.34 747.31 310.58Q746.52 309.83 746.52 308.6V287.76Q746.52 282.62 743.84 279.62Q741.16 276.62 736.97 276.62Q732.48 276.62 729.62 279.62Q726.77 282.62 726.84 287.62H721.85Q721.92 282.77 723.95 279.08Q725.97 275.39 729.52 273.36Q733.06 271.34 737.55 271.34Q741.81 271.34 745.11 273.36Q748.4 275.39 750.24 279.08Q752.09 282.77 752.09 287.76V308.6Q752.09 309.83 751.33 310.58Q750.57 311.34 749.34 311.34ZM698.7 311.34Q697.4 311.34 696.64 310.58Q695.88 309.83 695.88 308.6V274.59Q695.88 273.36 696.64 272.57Q697.4 271.77 698.7 271.77Q699.93 271.77 700.69 272.57Q701.45 273.36 701.45 274.59V308.6Q701.45 309.83 700.69 310.58Q699.93 311.34 698.7 311.34ZM724.09 311.34Q722.86 311.34 722.06 310.58Q721.27 309.83 721.27 308.6V287.76Q721.27 282.62 718.59 279.62Q715.92 276.62 711.72 276.62Q707.23 276.62 704.34 279.55Q701.45 282.48 701.45 287.18H697.47Q697.61 282.55 699.53 278.97Q701.45 275.39 704.77 273.36Q708.1 271.34 712.3 271.34Q716.57 271.34 719.86 273.36Q723.15 275.39 724.99 279.08Q726.84 282.77 726.84 287.76V308.6Q726.84 309.83 726.08 310.58Q725.32 311.34 724.09 311.34Z"/>
      <path d="M767.48 328.31Q766.18 328.31 765.42 327.55Q764.66 326.79 764.66 325.49V291.34Q764.73 285.7 767.37 281.18Q770.02 276.66 774.54 274.05Q779.06 271.45 784.7 271.45Q790.49 271.45 795.05 274.09Q799.6 276.73 802.24 281.29Q804.89 285.84 804.89 291.63Q804.89 297.35 802.32 301.9Q799.75 306.46 795.34 309.1Q790.92 311.74 785.35 311.74Q780.51 311.74 776.56 309.68Q772.62 307.62 770.23 304.22V325.49Q770.23 326.79 769.47 327.55Q768.71 328.31 767.48 328.31ZM784.7 306.68Q788.9 306.68 792.23 304.72Q795.55 302.77 797.47 299.33Q799.39 295.9 799.39 291.63Q799.39 287.29 797.47 283.89Q795.55 280.49 792.23 278.5Q788.9 276.51 784.7 276.51Q780.58 276.51 777.25 278.5Q773.92 280.49 772.04 283.89Q770.16 287.29 770.16 291.63Q770.16 295.9 772.04 299.33Q773.92 302.77 777.25 304.72Q780.58 306.68 784.7 306.68Z"/>
      <path d="M834.01 311.72Q828.22 311.72 823.66 309.11Q819.1 306.51 816.5 301.95Q813.9 297.39 813.9 291.6Q813.9 285.74 816.5 281.19Q819.1 276.63 823.66 274.03Q828.22 271.42 834.01 271.42Q839.8 271.42 844.32 274.03Q848.84 276.63 851.44 281.19Q854.05 285.74 854.12 291.6Q854.12 297.39 851.48 301.95Q848.84 306.51 844.32 309.11Q839.8 311.72 834.01 311.72ZM834.01 306.65Q838.2 306.65 841.53 304.7Q844.86 302.75 846.74 299.35Q848.62 295.95 848.62 291.6Q848.62 287.26 846.74 283.83Q844.86 280.39 841.53 278.44Q838.2 276.48 834.01 276.48Q829.81 276.48 826.48 278.44Q823.16 280.39 821.24 283.83Q819.32 287.26 819.32 291.6Q819.32 295.95 821.24 299.35Q823.16 302.75 826.48 304.7Q829.81 306.65 834.01 306.65Z"/>
      <path d="M883.23 311.75Q877.44 311.75 872.89 309.14Q868.33 306.54 865.72 301.98Q863.12 297.42 863.12 291.63Q863.12 285.77 865.72 281.22Q868.33 276.66 872.89 274.05Q877.44 271.45 883.23 271.45Q889.02 271.45 893.54 274.05Q898.06 276.66 900.67 281.22Q903.27 285.77 903.34 291.63Q903.34 297.42 900.7 301.98Q898.06 306.54 893.54 309.14Q889.02 311.75 883.23 311.75ZM883.23 306.68Q887.43 306.68 890.75 304.73Q894.08 302.77 895.96 299.37Q897.84 295.97 897.84 291.63Q897.84 287.29 895.96 283.86Q894.08 280.42 890.75 278.47Q887.43 276.51 883.23 276.51Q879.04 276.51 875.71 278.47Q872.38 280.42 870.46 283.86Q868.55 287.29 868.55 291.63Q868.55 295.97 870.46 299.37Q872.38 302.77 875.71 304.73Q879.04 306.68 883.23 306.68Z"/>
      <path d="M922.94 311.45Q920.04 311.45 917.76 309.85Q915.48 308.26 914.22 305.44Q912.95 302.62 912.95 298.93V257.69Q912.95 256.46 913.71 255.7Q914.47 254.95 915.7 254.95Q916.93 254.95 917.69 255.7Q918.45 256.46 918.45 257.69V298.93Q918.45 302.04 919.72 303.99Q920.98 305.95 922.94 305.95H924.74Q925.83 305.95 926.48 306.71Q927.13 307.47 927.13 308.7Q927.13 309.93 926.23 310.69Q925.32 311.45 923.88 311.45Z"/>
      <path d="M936.28 312.6Q934.55 312.6 933.32 311.37Q932.09 310.14 932.09 308.4Q932.09 306.59 933.35 305.36Q934.62 304.13 936.28 304.13Q938.02 304.13 939.25 305.4Q940.48 306.67 940.48 308.4Q940.48 310.07 939.29 311.33Q938.09 312.6 936.28 312.6Z"/>
      <path d="M995.32 312.57Q988.74 312.57 983.64 310.04Q978.54 307.51 975.68 303.02Q972.82 298.54 972.82 292.75V257.74Q972.82 256.51 973.62 255.71Q974.41 254.92 975.64 254.92Q976.87 254.92 977.67 255.71Q978.46 256.51 978.46 257.74V292.75Q978.46 297.02 980.6 300.28Q982.73 303.53 986.57 305.38Q990.4 307.22 995.32 307.22Q1000.17 307.22 1003.93 305.38Q1007.69 303.53 1009.82 300.28Q1011.96 297.02 1011.96 292.75V257.74Q1011.96 256.51 1012.75 255.71Q1013.55 254.92 1014.78 254.92Q1016.08 254.92 1016.84 255.71Q1017.6 256.51 1017.6 257.74V292.75Q1017.6 298.54 1014.74 303.02Q1011.89 307.51 1006.86 310.04Q1001.83 312.57 995.32 312.57Z"/>
      <path d="M1065.59 311.4Q1064.36 311.4 1063.57 310.6Q1062.77 309.8 1062.77 308.65V289.84Q1062.77 285.35 1061.07 282.46Q1059.37 279.56 1056.44 278.12Q1053.51 276.67 1049.82 276.67Q1046.28 276.67 1043.42 278.04Q1040.56 279.42 1038.9 281.81Q1037.23 284.19 1037.23 287.23H1033.25Q1033.4 282.67 1035.71 279.09Q1038.03 275.51 1041.86 273.45Q1045.7 271.39 1050.4 271.39Q1055.54 271.39 1059.59 273.52Q1063.64 275.66 1065.99 279.78Q1068.34 283.9 1068.34 289.84V308.65Q1068.34 309.8 1067.55 310.6Q1066.75 311.4 1065.59 311.4ZM1034.48 311.4Q1033.18 311.4 1032.42 310.64Q1031.66 309.88 1031.66 308.65V274.64Q1031.66 273.34 1032.42 272.58Q1033.18 271.82 1034.48 271.82Q1035.71 271.82 1036.47 272.58Q1037.23 273.34 1037.23 274.64V308.65Q1037.23 309.88 1036.47 310.64Q1035.71 311.4 1034.48 311.4Z"/>
      <path d="M1094.65 311.71Q1090.38 311.71 1086.18 310.26Q1081.99 308.81 1079.38 305.92Q1078.59 305.05 1078.73 303.96Q1078.88 302.88 1079.82 302.08Q1080.83 301.36 1081.92 301.51Q1083 301.65 1083.72 302.45Q1085.46 304.47 1088.32 305.56Q1091.18 306.64 1094.65 306.64Q1100 306.64 1102.39 304.8Q1104.78 302.95 1104.85 300.35Q1104.85 297.74 1102.39 296.04Q1099.93 294.34 1094.29 293.4Q1086.98 292.25 1083.58 289.35Q1080.18 286.46 1080.18 282.48Q1080.18 278.79 1082.13 276.33Q1084.09 273.87 1087.34 272.64Q1090.6 271.41 1094.5 271.41Q1099.35 271.41 1102.86 273.07Q1106.37 274.74 1108.54 277.56Q1109.26 278.5 1109.12 279.51Q1108.97 280.53 1107.96 281.18Q1107.09 281.68 1105.97 281.5Q1104.85 281.32 1104.05 280.45Q1102.24 278.36 1099.86 277.38Q1097.47 276.4 1094.36 276.4Q1090.38 276.4 1087.99 278.03Q1085.61 279.66 1085.61 282.12Q1085.61 283.78 1086.51 285.01Q1087.41 286.24 1089.62 287.18Q1091.83 288.12 1095.81 288.77Q1101.23 289.64 1104.38 291.34Q1107.53 293.04 1108.86 295.32Q1110.2 297.6 1110.2 300.28Q1110.2 303.68 1108.21 306.24Q1106.22 308.81 1102.72 310.26Q1099.21 311.71 1094.65 311.71Z"/>
      <path d="M1137.98 311.74Q1132.12 311.74 1127.59 309.17Q1123.07 306.6 1120.5 302.04Q1117.94 297.48 1117.94 291.62Q1117.94 285.69 1120.36 281.17Q1122.78 276.65 1127.05 274.05Q1131.32 271.44 1136.89 271.44Q1142.39 271.44 1146.48 273.94Q1150.56 276.43 1152.81 280.85Q1155.05 285.26 1155.05 290.9Q1155.05 292.06 1154.32 292.75Q1153.6 293.43 1152.44 293.43H1121.7V288.8H1153.02L1149.91 291.05Q1149.98 286.85 1148.39 283.52Q1146.8 280.19 1143.87 278.31Q1140.94 276.43 1136.89 276.43Q1132.77 276.43 1129.66 278.39Q1126.54 280.34 1124.84 283.78Q1123.14 287.21 1123.14 291.62Q1123.14 296.04 1125.06 299.44Q1126.98 302.84 1130.31 304.79Q1133.63 306.74 1137.98 306.74Q1140.58 306.74 1143.22 305.84Q1145.86 304.94 1147.45 303.56Q1148.25 302.91 1149.26 302.87Q1150.27 302.84 1151 303.42Q1151.94 304.29 1151.97 305.3Q1152.01 306.31 1151.14 307.03Q1148.75 309.06 1145.06 310.4Q1141.38 311.74 1137.98 311.74Z"/>
      <path d="M1166.98 286.94Q1167.2 282.46 1169.33 278.91Q1171.47 275.37 1174.9 273.34Q1178.34 271.32 1182.54 271.32Q1185.86 271.32 1187.67 272.26Q1189.48 273.2 1189.05 275.01Q1188.76 276.09 1188.07 276.45Q1187.38 276.81 1186.41 276.74Q1185.43 276.67 1184.2 276.6Q1180.15 276.24 1177 277.43Q1173.85 278.62 1172.01 281.08Q1170.17 283.54 1170.17 286.94ZM1167.42 311.32Q1166.11 311.32 1165.39 310.6Q1164.67 309.88 1164.67 308.57V274.5Q1164.67 273.2 1165.39 272.47Q1166.11 271.75 1167.42 271.75Q1168.72 271.75 1169.44 272.47Q1170.17 273.2 1170.17 274.5V308.57Q1170.17 309.88 1169.44 310.6Q1168.72 311.32 1167.42 311.32Z"/>
      <path d="M1213.05 311.73Q1207.19 311.73 1202.67 309.16Q1198.15 306.59 1195.58 302.04Q1193.01 297.48 1193.01 291.62Q1193.01 285.69 1195.44 281.16Q1197.86 276.64 1202.13 274.04Q1206.4 271.43 1211.97 271.43Q1217.46 271.43 1221.55 273.93Q1225.64 276.43 1227.88 280.84Q1230.12 285.25 1230.12 290.89Q1230.12 292.05 1229.4 292.74Q1228.68 293.43 1227.52 293.43H1196.77V288.8H1228.1L1224.99 291.04Q1225.06 286.84 1223.47 283.52Q1221.88 280.19 1218.95 278.31Q1216.02 276.43 1211.97 276.43Q1207.84 276.43 1204.73 278.38Q1201.62 280.33 1199.92 283.77Q1198.22 287.21 1198.22 291.62Q1198.22 296.03 1200.14 299.43Q1202.05 302.83 1205.38 304.78Q1208.71 306.74 1213.05 306.74Q1215.66 306.74 1218.3 305.83Q1220.94 304.93 1222.53 303.56Q1223.32 302.9 1224.34 302.87Q1225.35 302.83 1226.07 303.41Q1227.01 304.28 1227.05 305.29Q1227.09 306.3 1226.22 307.03Q1223.83 309.05 1220.14 310.39Q1216.45 311.73 1213.05 311.73Z"/>
      <path d="M1264.64 311.5Q1263.49 311.5 1262.65 310.67Q1261.82 309.84 1261.82 308.68V257.82Q1261.82 256.59 1262.65 255.79Q1263.49 255 1264.64 255Q1266.38 255 1267.18 256.45L1291.56 304.92H1289.1L1313.04 256.45Q1313.91 255 1315.57 255Q1316.73 255 1317.53 255.79Q1318.32 256.59 1318.32 257.82V308.68Q1318.32 309.84 1317.53 310.67Q1316.73 311.5 1315.57 311.5Q1314.34 311.5 1313.51 310.67Q1312.68 309.84 1312.68 308.68V265.13L1313.91 265.2L1292.57 308.82Q1291.77 310.2 1290.11 310.2Q1288.3 310.2 1287.5 308.46L1266.02 265.49L1267.46 265.13V308.68Q1267.46 309.84 1266.63 310.67Q1265.8 311.5 1264.64 311.5Z"/>
      <path d="M1336.15 311.35Q1334.85 311.35 1334.09 310.59Q1333.33 309.83 1333.33 308.53V274.6Q1333.33 273.29 1334.09 272.54Q1334.85 271.78 1336.15 271.78Q1337.38 271.78 1338.14 272.54Q1338.9 273.29 1338.9 274.6V308.53Q1338.9 309.83 1338.14 310.59Q1337.38 311.35 1336.15 311.35ZM1336.08 264.25Q1334.49 264.25 1333.33 263.09Q1332.17 261.94 1332.17 260.27Q1332.17 258.46 1333.36 257.42Q1334.56 256.37 1336.15 256.37Q1337.67 256.37 1338.86 257.42Q1340.06 258.46 1340.06 260.27Q1340.06 261.94 1338.9 263.09Q1337.74 264.25 1336.08 264.25Z"/>
      <path d="M1367.18 311.73Q1362.92 311.73 1358.72 310.28Q1354.52 308.84 1351.92 305.94Q1351.12 305.08 1351.27 303.99Q1351.41 302.9 1352.35 302.11Q1353.37 301.39 1354.45 301.53Q1355.54 301.67 1356.26 302.47Q1358 304.5 1360.85 305.58Q1363.71 306.67 1367.18 306.67Q1372.54 306.67 1374.92 304.82Q1377.31 302.98 1377.38 300.37Q1377.38 297.77 1374.92 296.07Q1372.47 294.37 1366.82 293.43Q1359.52 292.27 1356.12 289.38Q1352.72 286.48 1352.72 282.5Q1352.72 278.81 1354.67 276.35Q1356.62 273.89 1359.88 272.66Q1363.13 271.44 1367.04 271.44Q1371.89 271.44 1375.39 273.1Q1378.9 274.76 1381.07 277.58Q1381.8 278.52 1381.65 279.54Q1381.51 280.55 1380.5 281.2Q1379.63 281.71 1378.51 281.53Q1377.38 281.35 1376.59 280.48Q1374.78 278.38 1372.39 277.4Q1370.01 276.43 1366.89 276.43Q1362.92 276.43 1360.53 278.05Q1358.14 279.68 1358.14 282.14Q1358.14 283.81 1359.05 285.04Q1359.95 286.27 1362.16 287.21Q1364.36 288.15 1368.34 288.8Q1373.77 289.67 1376.91 291.37Q1380.06 293.07 1381.4 295.34Q1382.74 297.62 1382.74 300.3Q1382.74 303.7 1380.75 306.27Q1378.76 308.84 1375.25 310.28Q1371.74 311.73 1367.18 311.73Z"/>
      <path d="M1406.46 311.73Q1402.19 311.73 1397.99 310.28Q1393.8 308.84 1391.19 305.94Q1390.4 305.07 1390.54 303.99Q1390.68 302.9 1391.63 302.11Q1392.64 301.38 1393.72 301.53Q1394.81 301.67 1395.53 302.47Q1397.27 304.5 1400.13 305.58Q1402.98 306.67 1406.46 306.67Q1411.81 306.67 1414.2 304.82Q1416.58 302.98 1416.66 300.37Q1416.66 297.77 1414.2 296.07Q1411.74 294.37 1406.09 293.43Q1398.79 292.27 1395.39 289.38Q1391.99 286.48 1391.99 282.5Q1391.99 278.81 1393.94 276.35Q1395.89 273.89 1399.15 272.66Q1402.4 271.43 1406.31 271.43Q1411.16 271.43 1414.67 273.1Q1418.18 274.76 1420.35 277.58Q1421.07 278.52 1420.92 279.54Q1420.78 280.55 1419.77 281.2Q1418.9 281.71 1417.78 281.53Q1416.66 281.35 1415.86 280.48Q1414.05 278.38 1411.66 277.4Q1409.28 276.43 1406.17 276.43Q1402.19 276.43 1399.8 278.05Q1397.41 279.68 1397.41 282.14Q1397.41 283.8 1398.32 285.03Q1399.22 286.26 1401.43 287.2Q1403.63 288.15 1407.61 288.8Q1413.04 289.66 1416.19 291.36Q1419.33 293.06 1420.67 295.34Q1422.01 297.62 1422.01 300.3Q1422.01 303.7 1420.02 306.27Q1418.03 308.84 1414.52 310.28Q1411.01 311.73 1406.46 311.73Z"/>
      <path d="M1435.92 311.34Q1434.61 311.34 1433.85 310.59Q1433.1 309.83 1433.1 308.52V274.59Q1433.1 273.29 1433.85 272.53Q1434.61 271.77 1435.92 271.77Q1437.15 271.77 1437.91 272.53Q1438.67 273.29 1438.67 274.59V308.52Q1438.67 309.83 1437.91 310.59Q1437.15 311.34 1435.92 311.34ZM1435.84 264.25Q1434.25 264.25 1433.1 263.09Q1431.94 261.93 1431.94 260.27Q1431.94 258.46 1433.13 257.41Q1434.32 256.36 1435.92 256.36Q1437.44 256.36 1438.63 257.41Q1439.82 258.46 1439.82 260.27Q1439.82 261.93 1438.67 263.09Q1437.51 264.25 1435.84 264.25Z"/>
      <path d="M1470.94 311.73Q1465.15 311.73 1460.6 309.13Q1456.04 306.52 1453.43 301.96Q1450.83 297.41 1450.83 291.62Q1450.83 285.76 1453.43 281.2Q1456.04 276.64 1460.6 274.04Q1465.15 271.43 1470.94 271.43Q1476.73 271.43 1481.25 274.04Q1485.77 276.64 1488.38 281.2Q1490.98 285.76 1491.05 291.62Q1491.05 297.41 1488.41 301.96Q1485.77 306.52 1481.25 309.13Q1476.73 311.73 1470.94 311.73ZM1470.94 306.67Q1475.14 306.67 1478.47 304.71Q1481.79 302.76 1483.67 299.36Q1485.56 295.96 1485.56 291.62Q1485.56 287.28 1483.67 283.84Q1481.79 280.4 1478.47 278.45Q1475.14 276.5 1470.94 276.5Q1466.75 276.5 1463.42 278.45Q1460.09 280.4 1458.17 283.84Q1456.26 287.28 1456.26 291.62Q1456.26 295.96 1458.17 299.36Q1460.09 302.76 1463.42 304.71Q1466.75 306.67 1470.94 306.67Z"/>
      <path d="M1536 311.35Q1534.77 311.35 1533.98 310.55Q1533.18 309.76 1533.18 308.6V289.79Q1533.18 285.3 1531.48 282.41Q1529.78 279.52 1526.85 278.07Q1523.92 276.62 1520.23 276.62Q1516.69 276.62 1513.83 278Q1510.97 279.37 1509.31 281.76Q1507.64 284.15 1507.64 287.19H1503.66Q1503.81 282.63 1506.12 279.05Q1508.44 275.47 1512.27 273.4Q1516.11 271.34 1520.81 271.34Q1525.95 271.34 1530 273.48Q1534.05 275.61 1536.4 279.73Q1538.75 283.86 1538.75 289.79V308.6Q1538.75 309.76 1537.96 310.55Q1537.16 311.35 1536 311.35ZM1504.89 311.35Q1503.59 311.35 1502.83 310.59Q1502.07 309.83 1502.07 308.6V274.6Q1502.07 273.3 1502.83 272.54Q1503.59 271.78 1504.89 271.78Q1506.12 271.78 1506.88 272.54Q1507.64 273.3 1507.64 274.6V308.6Q1507.64 309.83 1506.88 310.59Q1506.12 311.35 1504.89 311.35Z"/>
      <path d="M1552.58 312.57Q1550.84 312.57 1549.61 311.34Q1548.38 310.11 1548.38 308.37Q1548.38 306.57 1549.65 305.34Q1550.92 304.11 1552.58 304.11Q1554.32 304.11 1555.55 305.37Q1556.78 306.64 1556.78 308.37Q1556.78 310.04 1555.58 311.3Q1554.39 312.57 1552.58 312.57Z"/>
      <path d="M546.57 311.37Q545.41 311.37 544.58 310.54Q543.75 309.7 543.75 308.55V254.87H549.39V308.55Q549.39 309.7 548.59 310.54Q547.8 311.37 546.57 311.37ZM526.6 260Q525.44 260 524.72 259.28Q524 258.56 524 257.47Q524 256.31 524.72 255.59Q525.44 254.87 526.6 254.87H566.61Q567.76 254.87 568.49 255.59Q569.21 256.31 569.21 257.47Q569.21 258.56 568.49 259.28Q567.76 260 566.61 260Z"/>
      <path d="M569.27 286.99Q569.49 282.5 571.62 278.96Q573.76 275.41 577.19 273.39Q580.63 271.36 584.83 271.36Q588.15 271.36 589.96 272.3Q591.77 273.24 591.34 275.05Q591.05 276.14 590.36 276.5Q589.67 276.86 588.7 276.79Q587.72 276.71 586.49 276.64Q582.44 276.28 579.29 277.47Q576.14 278.67 574.3 281.13Q572.46 283.59 572.46 286.99ZM569.71 311.37Q568.4 311.37 567.68 310.64Q566.96 309.92 566.96 308.62V274.54Q566.96 273.24 567.68 272.52Q568.4 271.8 569.71 271.8Q571.01 271.8 571.73 272.52Q572.46 273.24 572.46 274.54V308.62Q572.46 309.92 571.73 310.64Q571.01 311.37 569.71 311.37Z"/>
    </g>
  </g>
</svg>
